<?xml version="1.0" standalone="no"?>
<!DOCTYPE svg PUBLIC "-//W3C//DTD SVG 20010904//EN"
 "http://www.w3.org/TR/2001/REC-SVG-20010904/DTD/svg10.dtd">
<svg version="1.0" xmlns="http://www.w3.org/2000/svg"
 width="100.000000pt" height="100.000000pt" viewBox="0 0 100.000000 100.000000"
 preserveAspectRatio="xMidYMid meet">
<metadata>
Created by potrace 1.11, written by Peter Selinger 2001-2013
</metadata>
<g transform="translate(0.000000,100.000000) scale(0.100000,-0.100000)"
fill="#000000" stroke="none">
<path d="M401 904 c-273 -71 -399 -375 -257 -619 30 -51 111 -127 162 -153
135 -69 304 -61 419 18 216 149 254 428 84 627 -93 110 -266 163 -408 127z
m255 -112 c52 -27 109 -84 136 -136 87 -167 24 -365 -143 -452 -49 -26 -63
-29 -149 -28 -113 0 -162 19 -233 89 -72 73 -92 122 -92 235 0 112 20 162 91
234 104 103 258 127 390 58z"/>
<path d="M368 658 c-4 -11 -3 -297 1 -321 0 -5 16 -7 33 -5 l33 3 -1 98 c-1
54 2 96 7 95 5 -2 35 -46 66 -98 55 -90 60 -95 93 -96 l35 -1 0 167 0 167 -32
1 c-37 2 -35 9 -35 -132 0 -47 -4 -74 -9 -69 -5 5 -35 52 -67 104 -51 82 -62
94 -89 97 -18 2 -32 -2 -35 -10z"/>
</g>
</svg>
